/* XPM */
static char * battery_xpm[] = {
"16 24 9 1",
" 	c None",
".	c #FFFFFF",
"+	c #C0C0C0",
"@	c #00FF00",
"#	c #00C000",
"$	c #FFFF00",
"%	c #C0C000",
"&	c #FF0000",
"*	c #C00000",
"                ",
"                ",
"   .........+   ",
"  .+++++++++.+  ",
"  .+        .+  ",
"  .+ @@@@@# .+  ",
"  .+ ###### .+  ",
"  .+        .+  ",
"  .+ @@@@@# .+  ",
"  .+ ###### .+  ",
"  .+        .+  ",
"  .+ @@@@@# .+  ",
"  .+ ###### .+  ",
"  .+        .+  ",
"  .+ $$$$$% .+  ",
"  .+ %%%%%% .+  ",
"  .+        .+  ",
"  .+ &&&&&* .+  ",
"  .+ ****** .+  ",
"  .+        .+  ",
"  ..........++  ",
"   +++...++++   ",
"      ++++      ",
"                "};
