#define battery_13c_width 16
#define battery_13c_height 24
static unsigned char battery_13c_bits[] = {
   0x00, 0x00, 0x00, 0x00, 0xf8, 0x1f, 0xfc, 0x3f, 0x0c, 0x30, 0xec, 0x37,
   0xec, 0x35, 0xec, 0x34, 0x6c, 0x36, 0x2c, 0x36, 0x2c, 0x36, 0x2c, 0x34,
   0x6c, 0x34, 0x6c, 0x34, 0x6c, 0x36, 0x2c, 0x37, 0xac, 0x37, 0xec, 0x37,
   0x0c, 0x30, 0xfc, 0x3f, 0xf8, 0x1f, 0x60, 0x06, 0xc0, 0x03, 0x00, 0x00 };
