#define battery_00c_width 16
#define battery_00c_height 24
static unsigned char battery_00c_bits[] = {
   0x00, 0x00, 0x00, 0x00, 0xf8, 0x1f, 0xfc, 0x3f, 0x0c, 0x30, 0x0c, 0x30,
   0x0c, 0x32, 0x0c, 0x33, 0x8c, 0x31, 0xcc, 0x31, 0xcc, 0x31, 0xcc, 0x33,
   0x8c, 0x33, 0x8c, 0x33, 0x8c, 0x31, 0xcc, 0x30, 0x4c, 0x30, 0x0c, 0x30,
   0x0c, 0x30, 0xfc, 0x3f, 0xf8, 0x1f, 0x60, 0x06, 0xc0, 0x03, 0x00, 0x00 };
