#define bluetooth_width 16
#define bluetooth_height 24
static unsigned char bluetooth_bits[] = {
   0x00, 0x00, 0x00, 0x00, 0xf0, 0x0f, 0xf8, 0x1f, 0x7c, 0x3f, 0x7c, 0x3e,
   0x7c, 0x3c, 0x6c, 0x39, 0x4c, 0x33, 0x1c, 0x33, 0x3c, 0x39, 0x7c, 0x3c,
   0x3c, 0x3c, 0x1c, 0x39, 0x4c, 0x33, 0x6c, 0x33, 0x7c, 0x39, 0x7c, 0x3c,
   0x7c, 0x3e, 0x7c, 0x3f, 0xf8, 0x1f, 0xf0, 0x0f, 0x00, 0x00, 0x00, 0x00 };
