#define pulse_width 16
#define pulse_height 24
static unsigned char pulse_bits[] = {
   0x00, 0x00, 0x00, 0x00, 0xf0, 0x0f, 0x18, 0x18, 0xcc, 0x33, 0x64, 0x26,
   0x24, 0x24, 0x24, 0x24, 0x64, 0x26, 0xc4, 0x23, 0x04, 0x20, 0xc4, 0x23,
   0x64, 0x26, 0x34, 0x2c, 0x94, 0x29, 0x94, 0x29, 0x34, 0x2c, 0x64, 0x26,
   0xc4, 0x23, 0x04, 0x20, 0xfc, 0x3f, 0x38, 0x1c, 0x00, 0x00, 0x00, 0x00 };
