#define volume_02_width 16
#define volume_02_height 24
static unsigned char volume_02_bits[] = {
   0x00, 0x00, 0x00, 0x00, 0x00, 0x00, 0x00, 0x00, 0x00, 0x00, 0x00, 0x00,
   0x40, 0x00, 0xc0, 0x00, 0x88, 0x01, 0x2c, 0x01, 0x6e, 0x03, 0x4e, 0x02,
   0x4e, 0x02, 0x6e, 0x03, 0x2c, 0x01, 0x88, 0x01, 0xc0, 0x00, 0x40, 0x00,
   0x00, 0x00, 0x00, 0x00, 0x00, 0x00, 0x00, 0x00, 0x00, 0x00, 0x00, 0x00 };
