#define volume_01_width 16
#define volume_01_height 24
static unsigned char volume_01_bits[] = {
   0x00, 0x00, 0x00, 0x00, 0x00, 0x00, 0x00, 0x00, 0x00, 0x00, 0x00, 0x00,
   0x00, 0x00, 0x00, 0x00, 0x08, 0x00, 0x2c, 0x00, 0x6e, 0x00, 0x4e, 0x00,
   0x4e, 0x00, 0x6e, 0x00, 0x2c, 0x00, 0x08, 0x00, 0x00, 0x00, 0x00, 0x00,
   0x00, 0x00, 0x00, 0x00, 0x00, 0x00, 0x00, 0x00, 0x00, 0x00, 0x00, 0x00 };
