#define volume_03_width 16
#define volume_03_height 24
static unsigned char volume_03_bits[] = {
   0x00, 0x00, 0x00, 0x00, 0x00, 0x00, 0x00, 0x00, 0x00, 0x01, 0x00, 0x03,
   0x40, 0x06, 0xc0, 0x04, 0x88, 0x0d, 0x2c, 0x09, 0x6e, 0x0b, 0x4e, 0x1a,
   0x4e, 0x1a, 0x6e, 0x0b, 0x2c, 0x09, 0x88, 0x0d, 0xc0, 0x04, 0x40, 0x06,
   0x00, 0x03, 0x00, 0x01, 0x00, 0x00, 0x00, 0x00, 0x00, 0x00, 0x00, 0x00 };
