#define volume_04_width 16
#define volume_04_height 24
static unsigned char volume_04_bits[] = {
   0x00, 0x00, 0x00, 0x00, 0x00, 0x04, 0x00, 0x0c, 0x00, 0x19, 0x00, 0x13,
   0x40, 0x36, 0xc0, 0x24, 0x88, 0x2d, 0x2c, 0x69, 0x6e, 0x4b, 0x4e, 0x5a,
   0x4e, 0x5a, 0x6e, 0x4b, 0x2c, 0x69, 0x88, 0x2d, 0xc0, 0x24, 0x40, 0x36,
   0x00, 0x13, 0x00, 0x19, 0x00, 0x0c, 0x00, 0x04, 0x00, 0x00, 0x00, 0x00 };
