#define wlan_xx_width 16
#define wlan_xx_height 24
static unsigned char wlan_xx_bits[] = {
   0x00, 0x00, 0x00, 0x00, 0x00, 0x00, 0x00, 0x00, 0x00, 0x00, 0x18, 0x18,
   0x38, 0x1c, 0x70, 0x0e, 0xe0, 0x07, 0xc0, 0x03, 0xc0, 0x03, 0xe0, 0x07,
   0x70, 0x0e, 0x38, 0x1c, 0x18, 0x18, 0x00, 0x00, 0x00, 0x00, 0x00, 0x00,
   0x00, 0x00, 0xc0, 0x03, 0xe0, 0x07, 0xc0, 0x03, 0x00, 0x00, 0x00, 0x00 };
