#define wlan_05_width 16
#define wlan_05_height 24
static unsigned char wlan_05_bits[] = {
   0x00, 0x00, 0x00, 0x00, 0xc0, 0x03, 0x78, 0x1e, 0x0e, 0x70, 0x83, 0xc1,
   0xf0, 0x0f, 0x1c, 0x38, 0x06, 0x60, 0xe0, 0x07, 0x38, 0x1c, 0x0c, 0x30,
   0xc0, 0x03, 0x70, 0x0e, 0x18, 0x18, 0x80, 0x01, 0xe0, 0x07, 0x30, 0x0c,
   0x00, 0x00, 0xc0, 0x03, 0xe0, 0x07, 0xc0, 0x03, 0x00, 0x00, 0x00, 0x00 };
